<?xml version="1.0" encoding="iso-8859-1"?>
<!-- Generator: Adobe Illustrator 19.0.0, SVG Export Plug-In . SVG Version: 6.00 Build 0)  -->
<svg version="1.1" id="Capa_1" xmlns="http://www.w3.org/2000/svg" xmlns:xlink="http://www.w3.org/1999/xlink" x="0px" y="0px"
	 viewBox="0 0 388.702 388.702" style="enable-background:new 0 0 388.702 388.702;" xml:space="preserve">
<g>
	<g>
		<path style="fill:#00ACEA;" d="M194.351,10.449c101.566,0,183.902,82.336,183.902,183.902s-82.336,183.902-183.902,183.902
			S10.449,295.917,10.449,194.351l0,0C10.16,93.074,92.027,10.738,193.305,10.449C193.653,10.448,194.002,10.448,194.351,10.449z
			 M298.841,215.249v-41.796h-83.592V89.861h-41.796v83.592H89.861v41.796h83.592v83.592h41.796v-83.592H298.841z"/>
		<polygon style="fill:#D4E1F4;" points="298.841,173.453 298.841,215.249 215.249,215.249 215.249,298.841 173.453,298.841 
			173.453,215.249 89.861,215.249 89.861,173.453 173.453,173.453 173.453,89.861 215.249,89.861 215.249,173.453 		"/>
	</g>
	<g>
		<path style="fill:#224099;" d="M194.351,388.702C87.014,388.702,0,301.688,0,194.351C0,87.014,87.014,0,194.351,0
			c107.337,0,194.351,87.014,194.351,194.351c0,0,0,0,0,0C388.415,301.569,301.569,388.415,194.351,388.702z M194.351,20.898
			c-95.795,0-173.453,77.658-173.453,173.453s77.658,173.453,173.453,173.453s173.453-77.658,173.453-173.453
			S290.147,20.898,194.351,20.898L194.351,20.898z"/>
		<path style="fill:#224099;" d="M215.249,309.29h-41.796c-5.771,0-10.449-4.678-10.449-10.449v-73.143H89.861
			c-5.771,0-10.449-4.678-10.449-10.449v-41.796c0-5.771,4.678-10.449,10.449-10.449h73.143V89.861
			c0-5.771,4.678-10.449,10.449-10.449h41.796c5.771,0,10.449,4.678,10.449,10.449v73.143h73.143
			c5.771,0,10.449,4.678,10.449,10.449v41.796c0,5.771-4.678,10.449-10.449,10.449h-73.143v73.143
			C225.698,304.612,221.02,309.29,215.249,309.29z M183.902,288.392H204.8v-73.143c0-5.771,4.678-10.449,10.449-10.449h73.143
			v-20.898h-73.143c-5.771,0-10.449-4.678-10.449-10.449V100.31h-20.898v73.143c0,5.771-4.678,10.449-10.449,10.449H100.31V204.8
			h73.143c5.771,0,10.449,4.678,10.449,10.449V288.392z"/>
	</g>
</g>
<g>
</g>
<g>
</g>
<g>
</g>
<g>
</g>
<g>
</g>
<g>
</g>
<g>
</g>
<g>
</g>
<g>
</g>
<g>
</g>
<g>
</g>
<g>
</g>
<g>
</g>
<g>
</g>
<g>
</g>
</svg>
